# 3ds Max Wavefront OBJ Exporter v0.97b - (c)2007 guruware
# File Created: 25.01.2014 20:15:53

mtllib brickwall2.mtl

#
# object brickwall072
#

v  -59.3757 1.5175 -2.6683
v  -59.3757 85.3065 -2.6683
v  59.3757 85.3065 -2.6683
v  59.3757 1.5175 -2.6683
v  -59.3757 1.5175 2.6683
v  59.3757 1.5175 2.6683
v  59.3757 85.3065 2.6683
v  -59.3757 85.3065 2.6683
# 8 vertices

vn 0.0000 0.0000 -1.0000
vn 0.0000 -0.0000 1.0000
vn 0.0000 -1.0000 -0.0000
vn 1.0000 0.0000 -0.0000
vn 0.0000 1.0000 0.0000
vn -1.0000 0.0000 -0.0000
# 6 vertex normals

vt 0.8768 0.0726 0.0000
vt 0.8768 0.9169 0.0000
vt 0.0326 0.9169 0.0000
vt 0.0326 0.0726 0.0000
vt 0.9754 0.0707 0.0000
vt 0.9044 0.0707 0.0000
vt 0.9044 0.9223 0.0000
vt 0.9754 0.9223 0.0000
# 8 texture coords

g brickwall072
usemtl 02___Default
s 2
f 1/1/1 2/2/1 3/3/1 4/4/1 
s 4
f 5/4/2 6/1/2 7/2/2 8/3/2 
s 8
f 1/4/3 4/1/3 6/2/3 5/3/3 
s 16
f 4/5/4 3/6/4 7/7/4 6/8/4 
s 32
f 3/4/5 2/1/5 8/2/5 7/3/5 
s 64
f 2/6/6 1/5/6 5/8/6 8/7/6 
# 6 polygons

