# 3ds Max Wavefront OBJ Exporter v0.97b - (c)2007 guruware
# File Created: 25.01.2014 22:05:57

mtllib roof.mtl

#
# object roof003
#

v  40.1741 -1.0046 59.3757
v  -40.8429 -1.5460 59.3757
v  -40.8429 -1.5460 -59.3757
v  40.1741 -1.0046 -59.3757
v  42.9462 1.5460 59.3757
v  42.9462 1.5460 -59.3757
v  -42.9461 0.9821 -59.3757
v  -42.9461 0.9821 59.3757
# 8 vertices

vn 0.0115 -0.9999 0.0000
vn -0.0113 0.9999 -0.0000
vn 0.8462 -0.5329 0.0000
vn 0.0000 0.0000 -1.0000
vn -0.9008 -0.4342 0.0000
vn -0.9008 -0.4342 -0.0000
vn -0.0000 0.0000 1.0000
# 7 vertex normals

vt 0.9847 0.0106 0.0000
vt 0.9847 0.9071 0.0000
vt 0.0882 0.9071 0.0000
vt 0.0882 0.0106 0.0000
vt 0.0883 0.9140 0.0000
vt 0.9848 0.9140 0.0000
vt 0.9848 0.9846 0.0000
vt 0.0883 0.9846 0.0000
vt 0.0246 0.0067 0.0000
vt 0.0784 0.0067 0.0000
vt 0.0784 0.9032 0.0000
vt 0.0246 0.9032 0.0000
# 12 texture coords

g roof003
usemtl 09___Default
s 2
f 1/1/1 2/2/1 3/3/1 4/4/1 
s 4
f 5/4/2 6/1/2 7/2/2 8/3/2 
s 8
f 1/5/3 4/6/3 6/7/3 5/8/3 
s 16
f 4/9/4 3/10/4 7/11/4 6/12/4 
s 32
f 3/5/5 2/6/6 8/7/6 7/8/5 
s 64
f 2/9/7 1/10/7 5/11/7 8/12/7 
# 6 polygons

