# 3ds Max Wavefront OBJ Exporter v0.97b - (c)2007 guruware
# File Created: 25.01.2014 20:39:04

mtllib corner_crenel.mtl

#
# object corner_crenel057
#

v  -19.9682 -16.1451 -6.5715
v  0.0000 -16.1451 -6.5715
v  0.0000 -25.0069 -6.5715
v  -19.9682 -25.0069 -6.5715
v  8.6119 -9.6256 -6.5715
v  8.0322 -13.1781 -6.5715
v  4.2991 -17.3325 -6.5715
v  0.0000 -25.0069 6.5715
v  0.0000 -16.1451 6.5715
v  -19.9682 -16.1451 6.5715
v  -19.9682 -25.0069 6.5715
v  8.0322 -13.1781 6.5715
v  8.6119 -9.6256 6.5715
v  4.2915 -17.4215 6.5715
v  9.9841 7.8407 -6.5715
v  9.9841 7.8407 6.5715
v  19.9682 7.8407 6.5715
v  19.9682 7.8407 -6.5715
v  -0.0000 25.0069 -6.5715
v  -19.9682 25.0069 -6.5715
v  -19.9682 25.0069 6.5715
v  -0.0000 25.0069 6.5715
v  -19.9682 7.8407 6.5715
v  -19.9682 7.8407 -6.5715
v  -0.0000 7.8407 -6.5715
v  -0.0000 7.8407 6.5715
v  19.9682 -8.6423 -6.5715
v  13.3668 -10.5953 6.5715
v  19.9682 -8.6423 6.5715
v  13.4005 -10.6046 -6.5715
# 30 vertices

vn 0.0000 0.0000 -1.0000
vn -0.0000 -0.0000 1.0000
vn 0.0000 -0.0000 1.0000
vn 0.0000 -1.0000 -0.0000
vn 0.5858 -0.8104 -0.0010
vn 0.5854 -0.8107 -0.0000
vn 0.9211 -0.3892 -0.0041
vn 0.7752 -0.6317 0.0011
vn 0.7774 -0.6290 -0.0019
vn 0.9224 -0.3863 -0.0051
vn 0.0000 1.0000 0.0000
vn -1.0000 -0.0000 -0.0000
vn -1.0000 0.0000 -0.0000
vn 1.0000 0.0000 -0.0000
vn 0.5461 -0.8377 0.0027
vn 0.4543 -0.8908 -0.0000
vn 0.4524 -0.8918 0.0019
vn 0.5466 -0.8374 0.0025
# 18 vertex normals

vt 0.2720 0.3566 0.0000
vt 0.4401 0.3566 0.0000
vt 0.4401 0.2782 0.0000
vt 0.2720 0.2782 0.0000
vt 0.5125 0.4142 0.0000
vt 0.5076 0.3828 0.0000
vt 0.4762 0.3461 0.0000
vt 0.4762 0.3453 0.0000
vt 0.2665 0.1201 0.0000
vt 0.4423 0.1201 0.0000
vt 0.4423 0.2626 0.0000
vt 0.2665 0.2626 0.0000
vt 0.5509 0.1201 0.0000
vt 0.6513 0.1201 0.0000
vt 0.6513 0.2626 0.0000
vt 0.5495 0.2626 0.0000
vt 0.7341 0.7344 0.0000
vt 0.7341 0.9216 0.0000
vt 0.8653 0.9216 0.0000
vt 0.8653 0.7344 0.0000
vt 0.4401 0.7344 0.0000
vt 0.2754 0.7344 0.0000
vt 0.2754 0.9216 0.0000
vt 0.4401 0.9216 0.0000
vt 0.0653 0.3541 0.0000
vt 0.2584 0.3546 0.0000
vt 0.2582 0.5688 0.0000
vt 0.0651 0.5684 0.0000
vt 0.4401 0.5686 0.0000
vt 0.2720 0.5686 0.0000
vt 0.2720 0.7204 0.0000
vt 0.4401 0.7204 0.0000
vt 0.2580 0.7183 0.0000
vt 0.0649 0.7178 0.0000
vt 0.6029 0.9216 0.0000
vt 0.6029 0.7344 0.0000
vt 0.5241 0.5686 0.0000
vt 0.6081 0.5686 0.0000
vt 0.6081 0.4229 0.0000
vt 0.5525 0.4056 0.0000
vt 0.7450 0.1201 0.0000
vt 0.8418 0.1201 0.0000
vt 0.8418 0.2626 0.0000
vt 0.7448 0.2626 0.0000
vt 0.0654 0.2783 0.0000
vt 0.2585 0.2788 0.0000
vt 0.5528 0.4056 0.0000
# 47 texture coords

g corner_crenel057
usemtl 03___Default
s 2
f 1/1/1 2/2/1 3/3/1 4/4/1 
f 2/2/1 5/5/1 6/6/1 7/7/1 
s 4
f 8/3/2 9/2/2 10/1/3 11/4/3 
f 12/6/2 13/5/3 9/2/2 14/8/2 
s 8
f 4/9/4 3/10/5 8/11/6 11/12/4 
f 7/13/7 6/14/8 12/15/9 14/16/10 
s 32
f 15/17/11 16/18/11 17/19/11 18/20/11 
f 19/21/11 20/22/11 21/23/11 22/24/11 
s 64
f 1/25/12 10/26/12 23/27/13 24/28/13 
s off
f 25/29/1 24/30/1 20/31/1 19/32/1 
f 24/28/13 23/27/13 21/33/13 20/34/13 
f 23/30/3 26/29/3 22/32/3 21/31/3 
f 26/35/14 25/36/14 19/21/14 22/24/14 
s 2
f 15/37/1 18/38/1 27/39/1 5/5/1 
s 4
f 28/40/3 29/39/3 13/5/3 
s 8
f 30/41/15 27/42/16 29/43/17 28/44/18 
s 32
f 25/36/11 26/35/11 16/18/11 15/17/11 
s 2
f 24/30/1 25/29/1 2/2/1 1/1/1 
f 25/29/1 15/37/1 5/5/1 2/2/1 
s 4
f 26/29/2 23/30/3 10/1/3 9/2/2 
f 13/5/3 16/37/3 26/29/2 9/2/2 
s 64
f 4/45/12 11/46/12 10/26/12 1/25/12 
s 2
f 27/39/1 30/47/1 5/5/1 
s 4
f 29/39/3 17/38/3 16/37/3 13/5/3 
f 13/5/3 12/6/2 28/40/3 
s 8
f 28/44/18 12/15/9 6/14/8 30/41/15 
s 2
f 30/47/1 6/6/1 5/5/1 
s 4
f 9/2/2 8/3/2 14/8/2 
s 8
f 14/16/10 8/11/6 3/10/5 7/13/7 
s 2
f 7/7/1 3/3/1 2/2/1 
# 24 polygons - 6 triangles

