# 3ds Max Wavefront OBJ Exporter v0.97b - (c)2007 guruware
# File Created: 25.01.2014 20:34:10

mtllib pillar.mtl

#
# object pillar047
#

v  -9.9284 -0.1828 -9.2430
v  -9.9284 177.7006 -9.2430
v  9.9284 177.7006 -9.2430
v  9.9284 -0.1828 -9.2430
v  -9.9284 -0.1828 9.2429
v  9.9284 -0.1828 9.2429
v  9.9284 177.7006 9.2430
v  -9.9284 177.7006 9.2430
# 8 vertices

vn 0.0000 0.0000 -1.0000
vn 0.0000 -0.0000 1.0000
vn 0.0000 -1.0000 -0.0000
vn 1.0000 0.0000 -0.0000
vn 0.0000 1.0000 0.0000
vn -1.0000 0.0000 -0.0000
# 6 vertex normals

vt 0.7483 0.9756 0.0000
vt 0.7489 0.1455 0.0000
vt 0.9629 0.1455 0.0000
vt 0.9629 0.9756 0.0000
vt 0.0000 0.0000 0.0000
vt 1.0000 0.0000 0.0000
vt 1.0000 1.0000 0.0000
vt -0.0000 1.0000 0.0000
vt 0.7778 0.0462 0.0000
vt 0.8697 0.0462 0.0000
vt 0.8697 0.1380 0.0000
vt 0.7778 0.1380 0.0000
vt 0.0302 0.9756 0.0000
vt 0.0302 0.1455 0.0000
vt 0.2632 0.1455 0.0000
vt 0.2632 0.9756 0.0000
vt 0.7787 0.0457 0.0000
vt 0.8706 0.0457 0.0000
vt 0.8706 0.1376 0.0000
vt 0.7787 0.1376 0.0000
vt 0.5108 0.9756 0.0000
vt 0.5108 0.1455 0.0000
# 22 texture coords

g pillar047
usemtl 03___Default
s 2
f 1/1/1 2/2/1 3/3/1 4/4/1 
s 4
f 5/5/2 6/6/2 7/7/2 8/8/2 
s 8
f 1/9/3 4/10/3 6/11/3 5/12/3 
s 16
f 4/13/4 3/14/4 7/15/4 6/16/4 
s 32
f 3/17/5 2/18/5 8/19/5 7/20/5 
s 64
f 2/2/6 1/1/6 5/21/6 8/22/6 
# 6 polygons

