# 3ds Max Wavefront OBJ Exporter v0.97b - (c)2007 guruware
# File Created: 25.01.2014 20:28:12

mtllib russian_banner.mtl

#
# object banner007
#

v  -9.4340 -26.2055 -0.0000
v  0.0000 -13.1973 -0.0000
v  0.0000 26.2055 0.0000
v  -9.4340 26.2055 0.0000
v  9.4340 -26.2055 -0.0000
v  9.4340 26.2055 0.0000
# 6 vertices

vn 0.0000 -0.0000 1.0000
# 1 vertex normals

vt 0.5438 0.0163 0.0000
vt 0.7203 0.2538 0.0000
vt 0.7203 0.9731 0.0000
vt 0.5438 0.9731 0.0000
vt 0.8912 0.0163 0.0000
vt 0.8912 0.9731 0.0000
# 6 texture coords

g banner007
usemtl 07___Default
s 1
f 1/1/1 2/2/1 3/3/1 4/4/1 
f 2/2/1 5/5/1 6/6/1 3/3/1 
# 2 polygons

